<svg xmlns="http://www.w3.org/2000/svg" width="1088" height="300" viewBox="0 0 1088 300" fill="none"><g clip-path="url(#clip0_102_302)"><path d="M434.255 80.8813L435.914 71.6409C436.384 69.7498 434.255 68.7986 432.602 68.0965C423.599 64.7786 416.018 63.1196 408.437 63.1196C385.93 63.1196 374.323 78.0446 374.323 101.259V124.235L358.453 128.261V137.263C358.453 139.63 359.636 140.813 362.003 140.813H374.323V237.226C374.323 239.592 375.506 240.776 377.873 240.776H391.853C394.219 240.776 395.403 239.592 395.403 237.226V140.813H423.831C426.204 140.813 427.387 139.63 427.387 137.263V126.602C427.387 124.229 426.198 123.046 423.831 123.046H395.403V105.041C395.403 87.2736 400.855 81.3512 413.883 81.3512C418.385 81.3512 425.015 82.7724 430.699 84.6691C432.834 85.6203 433.78 83.4858 434.255 80.8813Z" fill="#052B3B"></path><path fill-rule="evenodd" clip-rule="evenodd" d="M550.45 173.738V173.5C550.45 152.658 539.551 120.679 496.673 120.685C463.273 120.685 441.48 141.057 441.48 182.038C441.48 228.704 472.751 243.154 498.807 243.154C522.735 243.154 538.13 232.73 545.711 226.807C547.608 225.624 548.791 224.203 547.846 222.306L542.875 213.779C541.453 211.407 539.795 209.986 537.898 211.407C530.554 217.091 517.764 224.197 503.077 224.673C480.332 225.143 465.17 216.616 463.279 190.322L534.342 189.846C546.662 189.846 550.45 183.686 550.45 173.738ZM495.965 139.386C519.655 139.386 527.944 150.761 529.365 173.5H463.273C465.17 149.097 476.063 139.386 495.965 139.386Z" fill="#052B3B"></path><path fill-rule="evenodd" clip-rule="evenodd" d="M673.321 173.5V173.738C673.321 183.686 669.533 189.846 657.213 189.846L586.149 190.322C588.04 216.616 603.203 225.143 625.947 224.673C640.634 224.197 653.425 217.091 660.768 211.407C662.665 209.986 664.324 211.407 665.745 213.779L670.716 222.306C671.662 224.203 670.479 225.624 668.582 226.807C661.001 232.73 645.606 243.154 621.678 243.154C595.622 243.154 564.351 228.704 564.351 182.038C564.351 141.057 586.144 120.685 619.544 120.685C662.422 120.679 673.321 152.658 673.321 173.5ZM652.236 173.5C650.815 150.761 642.526 139.386 618.836 139.386C598.94 139.386 588.04 149.097 586.144 173.5H652.236Z" fill="#052B3B"></path><path fill-rule="evenodd" clip-rule="evenodd" d="M794.533 225.149V126.602C794.533 124.229 793.111 123.284 790.983 123.057C776.29 121.636 757.577 120.691 745.97 120.691C710.673 120.691 687.221 142.959 687.221 182.044C687.221 208.814 696.699 243.159 734.363 243.159C752.362 243.159 766.104 231.552 773.447 223.495V232.26C773.447 270.637 763.262 282.244 729.862 282.244C720.389 282.244 708.069 279.402 701.201 277.505C699.072 276.791 698.12 278.688 697.651 281.293L695.992 290.771C695.522 292.662 697.651 293.845 699.31 294.321C706.653 296.688 719.913 300.006 732.472 300.006C777.954 300.006 794.533 281.531 794.533 225.149ZM773.447 140.338V204.533C765.396 212.828 751.654 224.435 738.388 224.435C712.564 224.435 708.776 199.086 708.776 182.033C708.776 152.183 722.518 139.392 745.732 139.392C753.783 139.392 763.494 139.624 773.447 140.338Z" fill="#052B3B"></path><path fill-rule="evenodd" clip-rule="evenodd" d="M808.433 182.033C808.433 137.501 832.83 120.679 866.706 120.679C900.344 120.679 924.741 138.922 924.741 182.033C924.741 221.593 900.344 243.148 866.706 243.148C832.83 243.148 808.433 221.593 808.433 182.033ZM903.186 182.033C903.186 150.999 888.974 139.392 866.706 139.392C844.2 139.392 829.988 150.999 829.988 182.033C829.988 212.59 844.2 224.673 866.706 224.673C888.974 224.673 903.186 212.59 903.186 182.033Z" fill="#052B3B"></path><path d="M1047.05 239.836L1086.96 125.22C1087.7 122.769 1086.72 121.053 1084.03 121.059H1067.86C1065.66 121.059 1064.2 122.038 1063.7 123.997L1034.56 216.571L1005.66 123.997C1005.18 122.038 1003.7 121.059 1001.5 121.059H987.051C984.356 121.059 983.377 122.774 984.113 125.22L994.151 154.606L973.825 217.058L944.683 123.997C944.196 122.038 942.724 121.059 940.521 121.059H924.356C921.661 121.059 920.682 122.774 921.418 125.22L961.335 239.836C962.071 241.795 963.299 242.774 965.502 242.774H980.438C982.641 242.774 983.864 241.795 984.6 239.836L1004.19 182.774L1023.78 239.836C1024.52 241.795 1025.74 242.774 1027.94 242.774H1042.88C1045.09 242.774 1046.31 241.795 1047.05 239.836Z" fill="#052B3B"></path><path d="M721.678 71.1772C721.678 76.7476 720.398 81.2285 717.838 84.6201C715.277 87.9893 711.84 89.6738 707.528 89.6738C702.923 89.6738 699.363 88.0454 696.848 84.7886L696.545 89H690.817V37.25H697.05V56.5552C699.566 53.4331 703.036 51.8721 707.461 51.8721C711.885 51.8721 715.356 53.5454 717.871 56.8921C720.409 60.2388 721.678 64.8208 721.678 70.6382V71.1772ZM715.445 70.4697C715.445 66.2246 714.626 62.9453 712.986 60.6318C711.346 58.3184 708.988 57.1616 705.911 57.1616C701.8 57.1616 698.847 59.0708 697.05 62.8892V78.6567C698.959 82.4751 701.935 84.3843 705.978 84.3843C708.965 84.3843 711.29 83.2275 712.952 80.9141C714.614 78.6006 715.445 75.1191 715.445 70.4697ZM741.085 79.8696L749.575 52.5459H756.246L741.59 94.6265C739.321 100.691 735.716 103.723 730.775 103.723L729.596 103.622L727.271 103.184V98.1304L728.956 98.2651C731.067 98.2651 732.707 97.8384 733.875 96.9849C735.065 96.1313 736.042 94.5703 736.806 92.3018L738.187 88.5957L725.182 52.5459H731.988L741.085 79.8696ZM779.223 89V39.9453H793.711C798.046 39.9453 801.886 40.9111 805.233 42.8428C808.602 44.7744 811.208 47.5146 813.049 51.0635C814.891 54.6123 815.812 58.6777 815.812 63.2598V65.7192C815.812 70.3687 814.88 74.4565 813.016 77.9829C811.174 81.5093 808.535 84.2271 805.098 86.1362C801.684 88.0454 797.765 89 793.34 89H779.223ZM787.747 46.8184V82.1943H793.306C797.776 82.1943 801.201 80.8018 803.582 78.0166C805.985 75.209 807.21 71.1885 807.255 65.9551V63.2261C807.255 57.9028 806.098 53.8374 803.784 51.0298C801.471 48.2222 798.113 46.8184 793.711 46.8184H787.747ZM821.978 70.436C821.978 66.8647 822.685 63.6528 824.1 60.8003C825.515 57.9253 827.503 55.7241 830.064 54.1968C832.624 52.647 835.567 51.8721 838.891 51.8721C843.81 51.8721 847.797 53.4556 850.851 56.6226C853.928 59.7896 855.59 63.9897 855.838 69.2231L855.871 71.1436C855.871 74.7373 855.175 77.9492 853.782 80.7793C852.412 83.6094 850.436 85.7993 847.853 87.3491C845.292 88.8989 842.327 89.6738 838.958 89.6738C833.815 89.6738 829.693 87.9668 826.593 84.5527C823.516 81.1162 821.978 76.5454 821.978 70.8403V70.436ZM830.165 71.1436C830.165 74.8945 830.94 77.8369 832.489 79.9707C834.039 82.082 836.195 83.1377 838.958 83.1377C841.721 83.1377 843.866 82.0596 845.393 79.9033C846.943 77.7471 847.718 74.5913 847.718 70.436C847.718 66.7524 846.921 63.8325 845.326 61.6763C843.754 59.52 841.609 58.4419 838.891 58.4419C836.218 58.4419 834.095 59.5088 832.523 61.6426C830.951 63.7539 830.165 66.9209 830.165 71.1436ZM877.771 83.1377C879.815 83.1377 881.51 82.5425 882.858 81.3521C884.206 80.1616 884.924 78.6904 885.014 76.9385H892.73C892.64 79.207 891.932 81.3296 890.607 83.3062C889.282 85.2603 887.485 86.8101 885.216 87.9556C882.948 89.1011 880.5 89.6738 877.872 89.6738C872.773 89.6738 868.73 88.0229 865.743 84.7212C862.755 81.4194 861.262 76.8599 861.262 71.0425V70.2002C861.262 64.6523 862.744 60.2163 865.709 56.8921C868.674 53.5454 872.717 51.8721 877.838 51.8721C882.173 51.8721 885.699 53.1411 888.417 55.6792C891.157 58.1948 892.595 61.5078 892.73 65.6182H885.014C884.924 63.5293 884.206 61.811 882.858 60.4634C881.533 59.1157 879.837 58.4419 877.771 58.4419C875.12 58.4419 873.076 59.4077 871.639 61.3394C870.201 63.2485 869.471 66.1572 869.449 70.0654V71.3794C869.449 75.3325 870.156 78.2861 871.571 80.2402C873.009 82.1719 875.075 83.1377 877.771 83.1377ZM909.171 43.6851V52.5459H915.606V58.6104H909.171V78.96C909.171 80.3525 909.441 81.3633 909.98 81.9922C910.541 82.5986 911.529 82.9019 912.944 82.9019C913.888 82.9019 914.842 82.7896 915.808 82.5649V88.8989C913.944 89.4155 912.147 89.6738 910.418 89.6738C904.129 89.6738 900.984 86.2036 900.984 79.2632V58.6104H894.987V52.5459H900.984V43.6851H909.171ZM919.346 70.436C919.346 66.8647 920.053 63.6528 921.468 60.8003C922.883 57.9253 924.871 55.7241 927.432 54.1968C929.992 52.647 932.935 51.8721 936.259 51.8721C941.178 51.8721 945.165 53.4556 948.219 56.6226C951.297 59.7896 952.959 63.9897 953.206 69.2231L953.239 71.1436C953.239 74.7373 952.543 77.9492 951.151 80.7793C949.78 83.6094 947.804 85.7993 945.221 87.3491C942.66 88.8989 939.695 89.6738 936.326 89.6738C931.183 89.6738 927.061 87.9668 923.962 84.5527C920.884 81.1162 919.346 76.5454 919.346 70.8403V70.436ZM927.533 71.1436C927.533 74.8945 928.308 77.8369 929.858 79.9707C931.407 82.082 933.564 83.1377 936.326 83.1377C939.089 83.1377 941.234 82.0596 942.761 79.9033C944.311 77.7471 945.086 74.5913 945.086 70.436C945.086 66.7524 944.289 63.8325 942.694 61.6763C941.122 59.52 938.977 58.4419 936.259 58.4419C933.586 58.4419 931.464 59.5088 929.891 61.6426C928.319 63.7539 927.533 66.9209 927.533 71.1436ZM979.249 60.0254C978.171 59.8457 977.059 59.7559 975.914 59.7559C972.163 59.7559 969.636 61.1934 968.333 64.0684V89H960.146V52.5459H967.963L968.165 56.6226C970.141 53.4556 972.881 51.8721 976.385 51.8721C977.553 51.8721 978.519 52.0293 979.283 52.3438L979.249 60.0254ZM1005.19 89C1004.83 88.3037 1004.52 87.1694 1004.25 85.5972C1001.64 88.3149 998.453 89.6738 994.68 89.6738C991.019 89.6738 988.031 88.6294 985.718 86.5405C983.404 84.4517 982.248 81.8687 982.248 78.7915C982.248 74.9058 983.685 71.9297 986.56 69.8633C989.458 67.7744 993.59 66.73 998.959 66.73H1003.98V64.3379C1003.98 62.4512 1003.45 60.9463 1002.4 59.8232C1001.34 58.6777 999.734 58.105 997.577 58.105C995.713 58.105 994.186 58.5767 992.995 59.52C991.805 60.4409 991.21 61.6201 991.21 63.0576H983.023C983.023 61.0586 983.685 59.1943 985.01 57.4648C986.336 55.7129 988.132 54.3428 990.401 53.3545C992.692 52.3662 995.241 51.8721 998.049 51.8721C1002.32 51.8721 1005.72 52.9502 1008.26 55.1064C1010.8 57.2402 1012.1 60.25 1012.17 64.1357V80.5771C1012.17 83.8564 1012.63 86.4731 1013.55 88.4272V89H1005.19ZM996.196 83.104C997.813 83.104 999.329 82.7109 1000.74 81.9248C1002.18 81.1387 1003.26 80.083 1003.98 78.7578V71.8848H999.565C996.533 71.8848 994.253 72.4126 992.726 73.4683C991.198 74.5239 990.435 76.0176 990.435 77.9492C990.435 79.5215 990.951 80.7793 991.984 81.7227C993.04 82.6436 994.444 83.104 996.196 83.104ZM1029.45 89H1021.26V37.25H1029.45V89ZM1047.1 89H1038.92V52.5459H1047.1V89ZM1038.41 43.0786C1038.41 41.8208 1038.8 40.7764 1039.59 39.9453C1040.4 39.1143 1041.54 38.6987 1043.03 38.6987C1044.51 38.6987 1045.65 39.1143 1046.46 39.9453C1047.27 40.7764 1047.68 41.8208 1047.68 43.0786C1047.68 44.314 1047.27 45.3472 1046.46 46.1782C1045.65 46.9868 1044.51 47.3911 1043.03 47.3911C1041.54 47.3911 1040.4 46.9868 1039.59 46.1782C1038.8 45.3472 1038.41 44.314 1038.41 43.0786ZM1077.83 89C1077.47 88.3037 1077.16 87.1694 1076.89 85.5972C1074.28 88.3149 1071.09 89.6738 1067.32 89.6738C1063.66 89.6738 1060.67 88.6294 1058.36 86.5405C1056.04 84.4517 1054.89 81.8687 1054.89 78.7915C1054.89 74.9058 1056.32 71.9297 1059.2 69.8633C1062.1 67.7744 1066.23 66.73 1071.6 66.73H1076.62V64.3379C1076.62 62.4512 1076.09 60.9463 1075.03 59.8232C1073.98 58.6777 1072.37 58.105 1070.22 58.105C1068.35 58.105 1066.82 58.5767 1065.63 59.52C1064.44 60.4409 1063.85 61.6201 1063.85 63.0576H1055.66C1055.66 61.0586 1056.32 59.1943 1057.65 57.4648C1058.97 55.7129 1060.77 54.3428 1063.04 53.3545C1065.33 52.3662 1067.88 51.8721 1070.69 51.8721C1074.96 51.8721 1078.36 52.9502 1080.9 55.1064C1083.43 57.2402 1084.74 60.25 1084.8 64.1357V80.5771C1084.8 83.8564 1085.26 86.4731 1086.19 88.4272V89H1077.83ZM1068.83 83.104C1070.45 83.104 1071.97 82.7109 1073.38 81.9248C1074.82 81.1387 1075.9 80.083 1076.62 78.7578V71.8848H1072.2C1069.17 71.8848 1066.89 72.4126 1065.36 73.4683C1063.84 74.5239 1063.07 76.0176 1063.07 77.9492C1063.07 79.5215 1063.59 80.7793 1064.62 81.7227C1065.68 82.6436 1067.08 83.104 1068.83 83.104Z" fill="#627282"></path><path d="M288.301 115.369C294.67 115.369 299.851 110.188 299.851 103.818V63.635C299.851 28.5477 271.309 0 236.222 0H63.7352C28.6479 0 0.10022 28.5477 0.10022 63.635V149.878C0.10022 156.248 5.28093 161.423 11.6507 161.423H91.0713L119.761 229.678C121.708 234.315 126.317 237.141 131.237 236.722C136.18 236.371 140.342 232.906 141.587 228.104L172.128 110.511L190.558 154.351C192.364 158.643 196.543 161.423 201.208 161.423H276.756V236.122C276.756 258.469 258.575 276.656 236.222 276.656H63.7352C41.3874 276.656 23.2011 258.475 23.2011 236.122V196.103C23.2011 189.733 18.0204 184.552 11.6507 184.552C5.28093 184.552 0.10022 189.733 0.10022 196.103V236.122C0.10022 271.209 28.6479 299.751 63.7352 299.751H236.222C271.309 299.751 299.857 271.203 299.857 236.122V149.878C299.857 143.509 294.676 138.328 288.306 138.328H208.88L180.191 70.0727C178.283 65.5318 173.691 62.7008 168.708 63.0235C163.765 63.3802 159.61 66.8453 158.364 71.641L127.823 189.229L109.399 145.4C107.593 141.102 103.414 138.322 98.7489 138.322H23.2011V63.635C23.2011 41.2872 41.3817 23.1065 63.7352 23.1065H236.222C258.57 23.1065 276.756 41.2872 276.756 63.635V103.818C276.75 110.188 281.931 115.369 288.301 115.369Z" fill="url(#paint0_linear_102_302)"></path></g><defs><linearGradient id="paint0_linear_102_302" x1="18.6236" y1="282.217" x2="284.659" y2="14.1815" gradientUnits="userSpaceOnUse"><stop stop-color="#00E969"></stop><stop offset="0.1379" stop-color="#00D58C"></stop><stop offset="0.3136" stop-color="#00C1B1"></stop><stop offset="0.4895" stop-color="#00B0CE"></stop><stop offset="0.6635" stop-color="#00A4E2"></stop><stop offset="0.8348" stop-color="#009DEF"></stop><stop offset="1" stop-color="#009BF3"></stop></linearGradient><clipPath id="clip0_102_302"><rect width="1087.1" height="300" fill="white" transform="translate(0.10022)"></rect></clipPath></defs></svg>