<svg width="300" height="141" viewBox="0 0 300 141" fill="none" xmlns="http://www.w3.org/2000/svg">
<g clip-path="url(#clip0_405_4152)">
<path d="M74.1276 68.3927C74.5396 68.8047 75.0974 69.1768 75.7098 69.5174C76.758 69.8889 77.652 70.2599 78.3929 70.6291C79.4584 71.1636 80.1929 71.5636 80.5929 71.8291L77.7929 79.8291C77.1929 79.4291 76.3275 78.9964 75.1929 78.5309C74.0584 78.0654 72.7748 77.5964 71.342 77.1309C69.9093 76.6654 68.342 76.28 66.6439 75.9818C64.9457 75.68 63.2257 75.5309 61.4948 75.5309C57.8293 75.5309 54.5275 76.1636 51.5966 77.4291C48.662 78.6945 46.1638 80.5309 44.0984 82.9273C42.0329 85.3273 40.4475 88.2436 39.3493 91.6764C38.2511 95.1091 37.6984 98.96 37.6984 103.225C37.6984 107.36 38.182 111.124 39.1493 114.527C40.1166 117.927 41.5638 120.844 43.4984 123.276C45.4293 125.709 47.8475 127.593 50.7493 128.927C53.6475 130.262 57.0329 130.927 60.8984 130.927C65.3638 130.927 69.0657 130.462 71.9966 129.527C74.9311 128.593 77.1311 127.76 78.5966 127.025L81.0984 135.025C80.6293 135.36 79.7966 135.775 78.5966 136.276C77.3966 136.778 75.8984 137.262 74.0948 137.727C72.2911 138.193 70.1966 138.593 67.7929 138.927C65.3966 139.262 62.7966 139.429 59.9966 139.429C55.1311 139.429 50.6984 138.629 46.6984 137.029C42.6984 135.429 39.2657 133.095 36.3966 130.029C33.5311 126.964 31.3129 123.178 29.7457 118.68C28.1784 114.178 27.3966 109.029 27.3966 103.229C27.3966 97.4291 28.2802 92.28 30.0475 87.7782C31.0653 85.1855 32.2869 82.8317 33.7131 80.7159C33.4638 80.7186 33.2129 80.72 32.9604 80.72C28.0949 80.72 23.6622 79.92 19.6622 78.32C15.6622 76.72 12.2258 74.3854 9.36035 71.32C6.4949 68.2545 4.27672 64.4691 2.70944 59.9709C1.14217 55.4727 0.360352 50.32 0.360352 44.52C0.360352 38.72 1.24399 33.5709 3.01126 29.0691C4.77853 24.5673 7.16035 20.7854 10.1604 17.72C13.1604 14.6545 16.6622 12.32 20.6622 10.72C24.6622 9.11998 28.9276 8.31998 33.4622 8.31998C36.3276 8.31998 38.9131 8.51998 41.2113 8.91998C43.5131 9.31998 45.5131 9.78544 47.2113 10.32C48.9131 10.8545 50.2949 11.3854 51.3604 11.92C52.4258 12.4545 53.1603 12.8545 53.5603 13.12L50.7603 21.12C50.1604 20.72 49.2949 20.2873 48.1604 19.8182C47.0258 19.3527 45.7422 18.8836 44.3094 18.4182C42.8767 17.9527 41.3094 17.5673 39.6113 17.2691C37.9131 16.9673 36.1931 16.8182 34.4622 16.8182C30.7967 16.8182 27.4949 17.4509 24.564 18.7163C21.6294 19.9854 19.1313 21.8182 17.0658 24.2145C15.0004 26.6145 13.4149 29.5309 12.3167 32.9636C11.2149 36.3963 10.6658 40.2473 10.6658 44.5127C10.6658 48.6473 11.1494 52.4109 12.1167 55.8145C13.084 59.2145 14.5313 62.1309 16.4658 64.5636C18.4004 66.9964 20.8149 68.88 23.7167 70.2145C26.6185 71.5491 30.0004 72.2145 33.8658 72.2145C38.1855 72.2145 41.8212 71.8436 44.74 70.7924C45.6925 70.2905 46.6774 69.836 47.6948 69.4291C51.6948 67.8291 55.9602 67.0291 60.4948 67.0291C61.5096 67.0291 62.4893 67.0542 63.4335 67.1043C63.2901 66.0579 63.2185 64.9334 63.2185 63.7309V1.82908L72.4439 0.23999V62.24C72.4439 63.76 72.5748 65.0182 72.8403 66.0109C73.1021 67.0036 73.5348 67.7964 74.1276 68.3927Z" fill="#012C6D"/>
<path d="M97.9639 19.2509C96.2984 19.2509 94.8802 18.7018 93.713 17.6C92.5457 16.4982 91.9639 15.0182 91.9639 13.1491C91.9639 11.2836 92.5457 9.79998 93.713 8.69816C94.8802 7.59998 96.2948 7.04725 97.9639 7.04725C99.6293 7.04725 101.048 7.59635 102.215 8.69816C103.382 9.79998 103.964 11.2836 103.964 13.1491C103.964 15.0145 103.378 16.4982 102.215 17.6C101.044 18.7018 99.6293 19.2509 97.9639 19.2509Z" fill="#012C6D"/>
<path d="M102.524 80.92L102.662 28.6509H93.3602L93.5195 79.2105L93.3057 125.564C93.3057 130.495 94.4948 134.127 96.8729 136.462C99.2511 138.796 103.28 140.029 108.964 140.164L110.247 132.364C108.793 132.164 107.571 131.916 106.582 131.615C105.593 131.316 104.797 130.865 104.204 130.265C103.611 129.665 103.178 128.865 102.917 127.865C102.651 126.865 102.52 125.6 102.52 124.065L102.524 80.92Z" fill="#012C6D"/>
<path d="M127.52 28.5236C123.986 29.1236 121.153 29.6909 119.018 30.2218V80.72H128.317V36.8218C128.651 36.7527 129.2 36.6545 129.967 36.52C130.735 36.3891 131.6 36.2727 132.567 36.1709C133.535 36.0691 134.553 35.9891 135.618 35.92C136.687 35.8545 137.72 35.8218 138.72 35.8218C141.186 35.8218 143.255 36.1382 144.92 36.7709C146.586 37.4073 147.92 38.4218 148.92 39.8218C149.92 41.2182 150.633 43.0545 151.069 45.32C151.502 47.5854 151.72 50.32 151.72 53.52V80.72H161.022V51.52C161.022 47.9891 160.687 44.7563 160.022 41.8218C159.353 38.8909 158.204 36.3745 156.571 34.2727C154.938 32.1745 152.753 30.5418 150.022 29.3745C147.287 28.2109 143.855 27.6254 139.72 27.6254C135.12 27.6254 131.051 27.9236 127.52 28.5236Z" fill="#012C6D"/>
<path d="M181.782 19.32C180.117 19.32 178.698 18.7709 177.531 17.6691C176.364 16.5709 175.782 15.0873 175.782 13.2182C175.782 11.3527 176.364 9.86908 177.531 8.76726C178.698 7.66544 180.113 7.11635 181.782 7.11635C183.448 7.11635 184.866 7.66544 186.033 8.76726C187.2 9.86908 187.782 11.3527 187.782 13.2182C187.782 15.0836 187.197 16.5673 186.033 17.6691C184.866 18.7709 183.451 19.32 181.782 19.32Z" fill="#012C6D"/>
<path d="M186.484 80.72H177.186V28.72H186.484V80.72Z" fill="#012C6D"/>
<path fill-rule="evenodd" clip-rule="evenodd" d="M215.6 78.32C219.6 79.92 224.033 80.72 228.898 80.72C231.698 80.72 234.298 80.5527 236.698 80.2182C239.065 79.8888 241.135 79.496 242.917 79.0397V138.222C245.648 138.887 248.698 139.338 252.066 139.571C255.433 139.804 258.517 139.92 261.317 139.92C266.982 139.92 272.182 139.204 276.917 137.771C281.651 136.335 285.717 134.167 289.117 131.269C292.517 128.367 295.153 124.702 297.018 120.269C298.884 115.836 299.818 110.618 299.818 104.618C299.818 98.6182 298.884 93.4036 297.018 88.9673C295.149 84.5345 292.517 80.8654 289.117 77.9673C285.717 75.0691 281.651 72.9018 276.917 71.4691C272.182 70.0364 266.982 69.32 261.317 69.32C258.517 69.32 255.433 69.4363 252.066 69.6691C248.74 69.899 245.726 70.3417 243.017 70.9938C242.621 71.0462 242.145 71.1323 241.564 71.2691C238.564 71.9745 234.266 72.2145 229.8 72.2145C225.935 72.2145 222.549 71.5491 219.651 70.2145C216.749 68.88 214.331 66.9964 212.4 64.5636C210.466 62.1309 209.018 59.2145 208.051 55.8145C207.084 52.4109 206.6 48.6473 206.6 44.5127C206.6 40.2473 207.149 36.3963 208.251 32.9636C209.349 29.5309 210.931 26.6145 213 24.2145C215.062 21.8182 217.564 19.9854 220.498 18.7163C223.429 17.4509 226.731 16.8182 230.397 16.8182C232.127 16.8182 233.847 16.9673 235.546 17.2691C237.247 17.5673 238.811 17.9527 240.247 18.4182C241.68 18.8836 242.964 19.3527 244.098 19.8182C245.233 20.2873 246.098 20.72 246.698 21.12L249.498 13.12C249.098 12.8545 248.364 12.4545 247.298 11.92C246.233 11.3854 244.851 10.8545 243.149 10.32C241.447 9.78544 239.447 9.31998 237.149 8.91998C234.851 8.51998 232.266 8.31998 229.4 8.31998C224.866 8.31998 220.6 9.11998 216.6 10.72C212.6 12.32 209.098 14.6545 206.098 17.72C203.098 20.7854 200.717 24.5673 198.949 29.0691C197.182 33.5709 196.298 38.72 196.298 44.52C196.298 50.32 197.08 55.4727 198.647 59.9709C200.215 64.4691 202.433 68.2545 205.298 71.32C208.164 74.3854 211.6 76.72 215.6 78.32ZM282.72 124.367C278.186 129.069 271.32 131.418 262.12 131.418C259.386 131.418 257.269 131.385 255.771 131.32C254.273 131.255 253.222 131.185 252.622 131.12V78.12C253.222 78.0545 254.273 77.9854 255.771 77.92C257.269 77.8509 259.386 77.8182 262.12 77.8182C271.32 77.8182 278.186 80.1673 282.72 84.8691C287.251 89.5673 289.52 96.1527 289.52 104.618C289.52 113.084 287.251 119.669 282.72 124.367Z" fill="#012C6D"/>
<path d="M219.251 137.076C217.117 137.611 214.302 138.178 210.8 138.775C207.302 139.375 203.251 139.676 198.651 139.676C194.651 139.676 191.284 139.091 188.553 137.927C185.818 136.76 183.618 135.113 181.953 132.978C180.284 130.844 179.088 128.327 178.353 125.429C177.618 122.527 177.251 119.313 177.251 115.778V86.5782H186.553V113.778C186.553 120.113 187.553 124.644 189.553 127.378C191.553 130.113 194.917 131.476 199.651 131.476C200.651 131.476 201.684 131.444 202.753 131.378C203.818 131.313 204.818 131.229 205.753 131.127C206.688 131.025 207.535 130.927 208.302 130.825C209.069 130.724 209.618 130.611 209.953 130.476V86.5745H219.251V137.076Z" fill="#012C6D"/>
<path d="M139.862 90.3745H139.756C135.214 90.3999 130.934 92.0145 127.705 94.9235C124.896 97.4538 123.16 100.701 122.699 104.219C115.47 104.423 110.636 111.629 110.636 118.367C110.636 125.877 116.748 132.033 124.411 132.417V132.418H124.427C124.673 132.43 124.921 132.436 125.171 132.436C125.389 132.436 125.608 132.43 125.827 132.418H127.76V126.076H124.411C120.196 125.793 117.036 122.411 117.036 118.367C117.036 116.331 117.84 113.996 119.16 112.331C119.418 111.873 119.774 111.469 120.218 111.153C120.447 110.927 120.694 110.724 120.993 110.564C121.342 110.294 123.014 109.56 123.538 109.491C123.619 109.472 123.707 109.445 123.797 109.416C123.958 109.365 124.127 109.311 124.287 109.302C124.549 109.251 125.225 109.251 125.262 109.251C125.488 109.2 126.133 109.314 126.455 109.37L126.455 109.37C126.551 109.387 126.618 109.399 126.636 109.4C126.64 109.399 126.644 109.397 126.648 109.394C126.85 109.436 127.021 109.47 127.132 109.493L127.135 109.494C127.186 109.504 127.224 109.511 127.247 109.516C127.287 109.52 127.328 109.523 127.37 109.526C127.438 109.53 127.508 109.534 127.571 109.545C127.636 109.527 127.698 109.494 127.753 109.447C127.771 109.433 127.804 108.829 127.804 108.749C127.804 108.48 127.833 108.214 127.884 107.956C127.92 106.418 129.902 102 130.404 101.425C130.854 100.825 131.956 99.6981 131.985 99.6763C134.331 97.9999 136.814 96.789 139.858 96.7745C145.004 96.7745 149.309 99.8908 150.404 104.04C150.538 104.422 150.982 106.614 150.934 107.2C151.004 107.596 151.062 108.367 151.011 108.825C151.15 108.985 151.354 108.858 151.506 108.763C151.53 108.748 151.553 108.734 151.574 108.722C151.587 108.714 151.599 108.707 151.611 108.702C151.733 108.645 151.845 108.593 151.95 108.544C152.919 108.09 153.301 107.912 155.035 107.623C155.412 107.57 155.816 107.533 156.284 107.524H156.433C161.134 107.524 164.96 111.713 164.96 116.858C164.96 121.417 161.882 125.226 157.831 126.034L133.76 126.124L133.785 132.476L152.892 132.537C153.981 132.582 155.099 132.589 156.225 132.589C164.571 132.589 171.36 125.531 171.36 116.854C171.36 108.178 164.665 101.124 156.433 101.124L156.224 101.126C153.931 94.8873 147.451 90.3745 139.862 90.3745Z" fill="#012C6D"/>
<path d="M127.36 125.771C127.36 125.771 127.324 125.778 127.262 125.789L127.36 125.771Z" fill="#012C6D"/>
</g>
<defs>
<clipPath id="clip0_405_4152">
<rect width="300" height="140.364" fill="white"/>
</clipPath>
</defs>
</svg>
